<svg id="Layer_1" data-name="Layer 1" xmlns="http://www.w3.org/2000/svg" viewBox="0 0 49.91 46.17"><defs><style>.cls-1{fill:#f8b781;}</style></defs><title>mail_hover</title><path class="cls-1" d="M812.31,950h0a3.72,3.72,0,0,0-1.35-1.86l-7.48-5.4L802,944.21l7.65,5.52,0.09,0.07a1.6,1.6,0,0,1,.21.21l0.05,0.05a0.49,0.49,0,0,1-.21.58l-45,27.38a3.73,3.73,0,0,0,1.49.31h42.41a3.75,3.75,0,0,0,3.75-3.75V951.22A3.71,3.71,0,0,0,812.31,950Z" transform="translate(-762.6 -932.16)"/><path class="cls-1" d="M765.12,950a1.61,1.61,0,0,1,.21-0.21l21.21-15.3a1.75,1.75,0,0,1,2,0l14.48,10.39,1.43-1.43-14.74-10.58a3.74,3.74,0,0,0-4.39,0l-21.21,15.3a3.72,3.72,0,0,0-1.35,1.86h0a3.71,3.71,0,0,0-.21,1.18v23.37a3.73,3.73,0,0,0,1.33,2.84L787,963.36Z" transform="translate(-762.6 -932.16)"/></svg>