<svg id="Layer_1" data-name="Layer 1" xmlns="http://www.w3.org/2000/svg" viewBox="0 0 118.11 118.11"><defs><style>.cls-1{fill:#222e50;stroke:#242e50;}.cls-1,.cls-3{stroke-miterlimit:10;}.cls-2{fill:none;stroke-linecap:round;stroke-linejoin:round;stroke-width:2px;}.cls-2,.cls-3{stroke:#fab780;}.cls-3{fill:#fab780;}</style></defs><title>LDMW_Assets</title><circle class="cls-1" cx="59.05" cy="59.05" r="59.05" transform="translate(-0.6 117.5) rotate(-89.42)"/><path class="cls-2" d="M88.86,42.8l-19.94-.2c0-.1,0-.21,0-.31L69.17,20a7.13,7.13,0,0,0-6.65-7.29,6.93,6.93,0,0,0-7.22,6.86l-.1,10.16c-.35,4.42-2.44,12.76-13.3,12.65l-10.13-.1A10.82,10.82,0,0,0,20.85,52.93l-.25,25A10.82,10.82,0,0,0,31.3,88.83l52.09.53c4.65,0,7.51-2.8,9.46-6.91a23.84,23.84,0,0,0,1.87-6.06l4.55-20.94a10.7,10.7,0,0,0-.85-6.69A10.82,10.82,0,0,0,88.86,42.8Z"/><rect class="cls-3" x="18.9" y="37.3" width="22.77" height="56.07" rx="3.85" ry="3.85" transform="translate(0.67 -0.3) rotate(0.58)"/></svg>