<svg id="Layer_1" data-name="Layer 1" xmlns="http://www.w3.org/2000/svg" viewBox="0 0 100 97.33"><defs><style>.cls-1{fill:#fff;stroke-linecap:round;stroke-linejoin:round;stroke-width:2px;}.cls-1,.cls-2{stroke:#242e50;}.cls-2{fill:#222e50;stroke-miterlimit:10;}</style></defs><title>LDMW_Assets</title><path class="cls-1" d="M79.51,38H59.58c0-.1,0-.21,0-.31V15.37a7.13,7.13,0,0,0-6.72-7.22,6.93,6.93,0,0,0-7.15,6.93V25.24C45.42,29.67,43.41,38,32.56,38H22.42A10.82,10.82,0,0,0,11.61,48.84v25A10.82,10.82,0,0,0,22.42,84.63H74.51c4.65,0,7.49-2.88,9.39-7a23.84,23.84,0,0,0,1.8-6.08l4.33-21a10.7,10.7,0,0,0-.92-6.69A10.82,10.82,0,0,0,79.51,38Z"/><rect class="cls-2" x="9.79" y="33.12" width="22.77" height="56.07" rx="3.85" ry="3.85"/></svg>