<svg id="Layer_1" data-name="Layer 1" xmlns="http://www.w3.org/2000/svg" viewBox="0 0 100 97.33"><defs><style>.cls-1{fill:#fff;stroke-linecap:round;stroke-linejoin:round;stroke-width:2px;}.cls-1,.cls-2{stroke:#fab780;}.cls-2{fill:#fab780;stroke-miterlimit:10;}</style></defs><title>LDMW_Assets</title><path class="cls-1" d="M79.51,59.31H59.58c0,.1,0,.21,0,.31V82a7.13,7.13,0,0,1-6.72,7.22,6.93,6.93,0,0,1-7.15-6.93V72.09c-.3-4.43-2.31-12.78-13.17-12.78H22.42A10.82,10.82,0,0,1,11.61,48.5v-25A10.82,10.82,0,0,1,22.42,12.71H74.51c4.65,0,7.49,2.88,9.39,7a23.84,23.84,0,0,1,1.8,6.08l4.33,21a10.7,10.7,0,0,1-.92,6.69A10.82,10.82,0,0,1,79.51,59.31Z"/><rect class="cls-2" x="9.79" y="8.15" width="22.77" height="56.07" rx="3.85" ry="3.85"/></svg>