<svg id="Layer_1" data-name="Layer 1" xmlns="http://www.w3.org/2000/svg" viewBox="0 0 118.1 118.1"><defs><style>.cls-1{fill:#222e50;stroke:#242e50;}.cls-1,.cls-3{stroke-miterlimit:10;}.cls-2{fill:none;stroke-linecap:round;stroke-linejoin:round;stroke-width:2px;}.cls-2,.cls-3{stroke:#fab780;}.cls-3{fill:#fab780;}</style></defs><title>LDMW_Assets</title><circle class="cls-1" cx="59.05" cy="59.05" r="59.05" transform="translate(-0.6 117.5) rotate(-89.42)"/><path class="cls-2" d="M88.56,76.6H68.63c0,.1,0,.21,0,.31V99.25a7.13,7.13,0,0,1-6.72,7.22,6.93,6.93,0,0,1-7.15-6.93V89.38C54.47,85,52.46,76.6,41.61,76.6H31.47A10.82,10.82,0,0,1,20.66,65.79v-25A10.82,10.82,0,0,1,31.47,30H83.56C88.21,30,91,32.87,93,37a23.84,23.84,0,0,1,1.8,6.08l4.33,21a10.7,10.7,0,0,1-.92,6.69A10.82,10.82,0,0,1,88.56,76.6Z"/><rect class="cls-3" x="18.84" y="25.44" width="22.77" height="56.07" rx="3.85" ry="3.85"/></svg>