<svg id="Layer_1" data-name="Layer 1" xmlns="http://www.w3.org/2000/svg" viewBox="0 0 48.42 49.73"><defs><style>.cls-1{fill:#252e50;}.cls-2{fill:#fff;}</style></defs><title>whatsapp icon</title><path class="cls-1" d="M921.59,929.94a24,24,0,1,0,24,24A24,24,0,0,0,921.59,929.94Zm0,44.25A20.21,20.21,0,1,1,941.8,954,20.21,20.21,0,0,1,921.59,974.19Z" transform="translate(-897.2 -929.94)"/><polygon class="cls-2" points="8.38 36.36 5.51 44.25 15.2 40.71 8.9 35.21 8.38 36.36"/><polygon class="cls-1" points="8.38 36.36 4.35 37.24 0 49.73 13.41 45.41 13.41 41.52 5.74 44.02 8.38 36.36"/><path class="cls-1" d="M915.76,944.13l2,4.43a1.4,1.4,0,0,1,.08.93l-0.09.36a1.4,1.4,0,0,1-.31.58L916,952V953a14,14,0,0,0,3.32,4.12,20.75,20.75,0,0,0,5.11,3,1.4,1.4,0,0,0,1.35-.49c0.49-.68,1.42-1.91,1.42-1.91s0.18-.86,1.78-0.43a22.9,22.9,0,0,1,4.25,2,1.23,1.23,0,0,1,.55,1.54,4.92,4.92,0,0,1-1.54,3.08c-0.86.62-2.65,2.4-6.71,1s-8.31-3.39-10.89-6.89-4.92-6.28-4.49-9.85a6.35,6.35,0,0,1,2-4.36,1.14,1.14,0,0,1,.52-0.24,7.35,7.35,0,0,1,2.18-.1A1.16,1.16,0,0,1,915.76,944.13Z" transform="translate(-897.2 -929.94)"/></svg>